<?xml version="1.0" encoding="UTF-8"?>
<svg id="Camada_2" xmlns="http://www.w3.org/2000/svg" version="1.1" viewBox="0 0 664.7 283.4">
  <!-- Generator: Adobe Illustrator 29.8.3, SVG Export Plug-In . SVG Version: 2.1.1 Build 3)  -->
  <defs>
    <style>
      .st0 {
        fill: #fff;
      }
    </style>
  </defs>
  <path class="st0" d="M141.7,0C63.4,0,0,63.4,0,141.7s8.3,54.8,22.7,77l-13.3,38c-5.2,14.7,2.7,22.5,17.4,17.3l38-13.3c22.2,14.4,48.6,22.7,77,22.7,78.2,0,141.7-63.4,141.7-141.7S220,0,141.7,0ZM170,212.7c0,15.6-12.7,28.3-28.3,28.3s-28.3-12.7-28.3-28.3v-71c0-15.6,12.7-28.3,28.3-28.3s28.3,12.7,28.3,28.3v71ZM141.7,99.2c-15.6,0-28.3-12.7-28.3-28.3s12.7-28.3,28.3-28.3,28.3,12.7,28.3,28.3-12.7,28.3-28.3,28.3Z"/>
  <g id="Layer_3">
    <g>
      <g>
        <path class="st0" d="M354.5,78.9c1-.1,1.9-.2,2.7-.3.9,0,1.8,0,2.9,0s1.8,0,2.7,0c.9,0,1.8.2,2.9.3l15.3,49c-1.9.3-3.7.4-5.5.4s-3.4-.1-5-.4l-2.7-9.8h-16.2l-2.8,9.8c-1.6.3-3.2.4-4.7.4s-3.3-.1-5-.4l15.5-49h0ZM365.4,109.9l-5.7-20.6-5.9,20.6h11.6Z"/>
        <path class="st0" d="M406.5,119.7c.5.9,1,2,1.4,3.2.4,1.2.5,2.6.5,4.3-1.8.7-3.5,1.2-5.1,1.4-1.6.2-3.2.3-5,.3-3,0-5.5-.5-7.7-1.4-2.2-.9-4-2.2-5.4-3.8-1.4-1.6-2.5-3.6-3.2-5.8-.7-2.2-1.1-4.7-1.1-7.3s.4-5,1.1-7.2c.7-2.2,1.8-4.2,3.2-5.9,1.4-1.7,3.2-3,5.4-3.9,2.1-1,4.6-1.4,7.4-1.4s1.9,0,2.8,0,1.6.1,2.4.3c.8.1,1.5.3,2.3.6.8.2,1.6.5,2.6.9,0,1.1-.1,2.2-.4,3.5-.3,1.3-.7,2.5-1.3,3.7-1.4-.4-2.6-.8-3.6-.9-1-.2-2.2-.2-3.5-.2-2.8,0-4.9.9-6.4,2.8-1.4,1.8-2.1,4.5-2.1,7.9s.8,6.4,2.3,8.1c1.5,1.7,3.6,2.5,6.3,2.5s1.3,0,1.9,0,1.1,0,1.7-.2c.5,0,1.1-.2,1.7-.4s1.2-.4,2-.7h0Z"/>
        <path class="st0" d="M419.4,113.3c.2,2.7,1.1,4.7,2.9,5.9,1.7,1.2,4,1.8,6.8,1.8s3.1-.2,4.7-.4c1.6-.3,3.1-.7,4.6-1.3.5.9.9,2,1.3,3.3.4,1.3.6,2.6.6,4.1-3.5,1.4-7.5,2.1-12,2.1s-6.1-.5-8.4-1.4c-2.3-.9-4.2-2.2-5.7-3.8-1.5-1.6-2.6-3.5-3.3-5.8-.7-2.2-1.1-4.7-1.1-7.3s.4-5,1.1-7.3c.7-2.3,1.8-4.2,3.2-5.9s3.2-3,5.3-4c2.1-1,4.6-1.5,7.4-1.5s4.6.4,6.5,1.3c1.9.9,3.5,2.1,4.9,3.6s2.4,3.3,3,5.3c.7,2.1,1,4.3,1,6.7s0,1.7-.1,2.6-.1,1.5-.2,2h-22.6,0ZM433.2,106.6c0-2.2-.7-3.9-1.8-5.3-1.1-1.3-2.7-2-4.7-2s-4,.6-5.2,1.9c-1.2,1.3-1.9,3.1-2.1,5.4h13.8,0Z"/>
        <path class="st0" d="M454.2,112.6c-2.5-.7-4.5-1.8-6-3.2s-2.1-3.6-2.1-6.4,1.2-6.2,3.7-8.1c2.5-1.9,5.9-2.9,10.1-2.9s3.5.2,5.2.5,3.5.8,5.2,1.4c0,1.2-.3,2.4-.7,3.7s-.8,2.4-1.3,3.3c-1.1-.4-2.3-.8-3.6-1.2-1.3-.3-2.7-.5-4.2-.5s-2.8.2-3.6.7-1.3,1.2-1.3,2.3.3,1.7.9,2.1c.6.4,1.5.8,2.6,1.2l3.9,1.2c1.3.4,2.4.8,3.4,1.3,1,.5,1.9,1.2,2.6,1.9.7.8,1.3,1.7,1.7,2.9.4,1.1.6,2.5.6,4.2s-.4,3.2-1.1,4.7-1.7,2.7-3.1,3.8-3,1.9-4.9,2.5-4.1.9-6.5.9-2.1,0-3-.1-1.8-.2-2.6-.3-1.7-.4-2.5-.6c-.8-.2-1.7-.5-2.7-.9,0-1.2.3-2.5.6-3.7s.8-2.5,1.3-3.7c1.5.6,2.9,1,4.3,1.3s2.7.4,4.2.4,1.3,0,2.1-.2,1.4-.3,2.1-.6c.6-.3,1.2-.7,1.6-1.2s.6-1.1.6-1.9-.3-1.9-1-2.3c-.7-.5-1.6-.9-2.8-1.3l-4.2-1.2h0Z"/>
        <path class="st0" d="M481.5,112.6c-2.5-.7-4.5-1.8-6-3.2s-2.1-3.6-2.1-6.4,1.2-6.2,3.7-8.1c2.5-1.9,5.9-2.9,10.1-2.9s3.5.2,5.2.5,3.5.8,5.2,1.4c0,1.2-.3,2.4-.7,3.7s-.8,2.4-1.3,3.3c-1.1-.4-2.3-.8-3.6-1.2-1.3-.3-2.7-.5-4.2-.5s-2.8.2-3.6.7-1.3,1.2-1.3,2.3.3,1.7.9,2.1c.6.4,1.5.8,2.6,1.2l3.9,1.2c1.3.4,2.4.8,3.4,1.3,1,.5,1.9,1.2,2.6,1.9.7.8,1.3,1.7,1.7,2.9.4,1.1.6,2.5.6,4.2s-.4,3.2-1.1,4.7-1.7,2.7-3.1,3.8-3,1.9-4.9,2.5-4.1.9-6.5.9-2.1,0-3-.1-1.8-.2-2.6-.3-1.7-.4-2.5-.6c-.8-.2-1.7-.5-2.7-.9,0-1.2.3-2.5.6-3.7s.8-2.5,1.3-3.7c1.5.6,2.9,1,4.3,1.3s2.7.4,4.2.4,1.3,0,2.1-.2,1.4-.3,2.1-.6c.6-.3,1.2-.7,1.6-1.2s.6-1.1.6-1.9-.3-1.9-1-2.3c-.7-.5-1.6-.9-2.8-1.3l-4.2-1.2h0Z"/>
        <path class="st0" d="M518.4,128.8c-2.9,0-5.3-.5-7.5-1.4-2.1-.9-3.9-2.2-5.2-3.9-1.4-1.7-2.4-3.6-3.1-5.8-.7-2.2-1.1-4.6-1.1-7.2s.4-5,1.1-7.3c.7-2.3,1.8-4.2,3.1-5.9s3.1-3,5.2-3.9c2.1-1,4.6-1.4,7.5-1.4s5.4.5,7.5,1.4,3.9,2.3,5.3,3.9c1.4,1.7,2.5,3.6,3.1,5.9.7,2.3,1,4.7,1,7.3s-.3,5-1,7.2-1.7,4.2-3.1,5.8c-1.4,1.7-3.2,3-5.3,3.9s-4.6,1.4-7.5,1.4ZM518.4,121.4c2.5,0,4.4-.9,5.5-2.8,1.1-1.9,1.7-4.6,1.7-8.2s-.6-6.3-1.7-8.2c-1.1-1.9-2.9-2.8-5.5-2.8s-4.3.9-5.4,2.8-1.7,4.6-1.7,8.2.6,6.3,1.7,8.2c1.1,1.9,2.9,2.8,5.4,2.8Z"/>
        <path class="st0" d="M570.4,104.8c0-1.1-.2-2-.5-2.7-.4-.7-.9-1.2-1.5-1.6-.6-.4-1.4-.7-2.3-.8-.9-.1-2-.2-3.1-.2-2.5,0-5.1.5-7.8,1.4-.6-1.2-1.1-2.3-1.4-3.3-.3-1.1-.5-2.3-.5-3.8,2-.7,4-1.2,6-1.5s3.9-.5,5.6-.5c4.7,0,8.4,1.1,11.1,3.4,2.7,2.3,4,5.9,4,10.9v20.5c-1.6.5-3.5,1-5.8,1.4-2.3.4-4.8.7-7.7.7s-4.4-.2-6.4-.6c-1.9-.4-3.6-1.1-5-2.1-1.4-.9-2.5-2.2-3.2-3.7s-1.1-3.3-1.1-5.5.5-4,1.4-5.5c.9-1.5,2.1-2.7,3.6-3.6,1.5-.9,3.1-1.5,4.9-1.9,1.8-.4,3.6-.6,5.5-.6s2.8,0,4.4.2v-.8h0ZM552.8,78.9c.9-.1,1.8-.2,2.6-.3.8,0,1.8,0,3,0,2.2,0,4.3.1,6.1.4l7.6,8.4c-1.5.3-3,.4-4.4.4s-1.8,0-2.6-.1c-.8,0-1.5-.2-2.1-.3l-10.3-8.4h0ZM570.4,111.8c-.5,0-1.1-.2-1.8-.2-.6,0-1.2,0-1.7,0-2.2,0-4,.4-5.3,1.2-1.3.8-1.9,2.1-1.9,3.8s.2,2.1.8,2.7c.5.6,1.1,1.1,1.8,1.4s1.5.5,2.2.6,1.5,0,2.1,0,1.4,0,2-.2c.7-.1,1.3-.2,1.8-.3v-9h0Z"/>
      </g>
      <g>
        <path class="st0" d="M338.6,149.6c1.7-.3,3.3-.4,5-.4s3.3.1,5,.4v49c-1.7.3-3.4.4-5,.4s-3.4-.1-5-.4v-49Z"/>
        <path class="st0" d="M355.8,163.4c.6-.1,1.3-.2,1.9-.3.6,0,1.3-.1,2.1-.1s1.5,0,2,.1c.6,0,1.2.2,1.8.3.1.2.3.6.4,1,.1.4.2.9.3,1.4,0,.5.2.9.2,1.4,0,.5.1.8.2,1.2.5-.7,1-1.4,1.6-2.1.6-.7,1.4-1.3,2.2-1.8.8-.6,1.8-1,2.8-1.3,1-.3,2.2-.5,3.5-.5,4,0,7,1.1,9,3.3,2,2.2,3,5.6,3,10.3v22.5c-1.6.3-3.2.4-4.8.4s-3.2-.1-4.8-.4v-19.9c0-2.5-.4-4.3-1.1-5.7s-2.1-2-3.9-2-1.6.1-2.4.3-1.6.7-2.2,1.3-1.2,1.6-1.6,2.8-.6,2.7-.6,4.6v18.5c-1.6.3-3.2.4-4.8.4s-3.2-.1-4.8-.4v-35.3h0Z"/>
        <path class="st0" d="M395.9,170.7h-5.6c-.1-.7-.2-1.4-.3-2,0-.6,0-1.2,0-1.8s0-1.2,0-1.7c0-.6.1-1.2.3-1.8h5.6v-1.7c0-2.2.3-4.1,1-5.8s1.6-3.1,2.8-4.3c1.2-1.2,2.7-2.1,4.4-2.7,1.7-.6,3.6-.9,5.6-.9s2.5,0,3.5.2c.9.1,1.9.3,3,.6,0,1.5-.2,2.9-.4,4.1-.2,1.2-.5,2.4-1,3.6-.5,0-1-.2-1.6-.3-.5-.1-1.3-.2-2.2-.2-1.6,0-2.9.4-3.9,1.1-1,.8-1.5,2.4-1.6,4.8v1.5h8.2c.1.7.2,1.4.3,2,0,.6,0,1.2,0,1.8s0,1.2,0,1.7c0,.6-.1,1.2-.3,1.8h-8.2v27.9c-1.6.3-3.2.4-4.8.4s-3.2-.1-4.8-.4v-27.9h0Z"/>
        <path class="st0" d="M431.1,199.4c-2.9,0-5.4-.5-7.5-1.4-2.1-.9-3.9-2.2-5.2-3.9s-2.4-3.6-3.1-5.8c-.7-2.2-1.1-4.6-1.1-7.2s.4-5,1.1-7.3c.7-2.3,1.8-4.2,3.1-5.9,1.4-1.7,3.1-3,5.2-3.9,2.1-1,4.6-1.4,7.5-1.4s5.4.5,7.5,1.4c2.1.9,3.9,2.3,5.3,3.9s2.5,3.6,3.1,5.9c.7,2.3,1,4.7,1,7.3s-.3,5-1,7.2-1.7,4.2-3.1,5.8-3.2,3-5.3,3.9-4.6,1.4-7.5,1.4ZM431.1,192.1c2.5,0,4.4-.9,5.5-2.8,1.1-1.9,1.7-4.6,1.7-8.1s-.6-6.3-1.7-8.1c-1.1-1.9-3-2.8-5.5-2.8s-4.3.9-5.4,2.8c-1.1,1.9-1.7,4.6-1.7,8.1s.6,6.3,1.7,8.1c1.1,1.9,2.9,2.8,5.4,2.8Z"/>
        <path class="st0" d="M453.4,163.4c.7-.1,1.3-.2,2-.3.6,0,1.3-.1,2-.1s1.4,0,2,.1,1.3.2,1.9.3c.1.2.3.6.4,1,.1.4.2.9.3,1.4,0,.5.2.9.2,1.4,0,.5.1.9.2,1.2,1-1.4,2.2-2.7,3.7-3.8,1.5-1.1,3.3-1.7,5.5-1.7s1,0,1.6,0,1,.1,1.3.2c0,.5.2,1,.2,1.6,0,.6,0,1.2,0,1.8s0,1.6-.1,2.5c0,.9-.2,1.8-.4,2.6-.5,0-1.1-.1-1.7-.1h-1.1c-.8,0-1.6,0-2.6.2-1,.2-1.9.6-2.7,1.3-.9.7-1.6,1.7-2.1,3.1-.6,1.4-.9,3.3-.9,5.7v16.8c-.8.1-1.6.2-2.5.3-.8,0-1.6,0-2.4,0s-1.6,0-2.4,0c-.8,0-1.6-.1-2.5-.3v-35.3h0Z"/>
        <path class="st0" d="M478.5,163.4c.6-.1,1.3-.2,1.9-.3.6,0,1.3-.1,2.1-.1s1.5,0,2,.1,1.2.2,1.8.3c.1.2.3.6.4,1,.1.4.2.9.3,1.4,0,.5.2.9.2,1.4,0,.5.1.8.2,1.2.4-.7.8-1.4,1.4-2.1.6-.7,1.3-1.3,2.1-1.8.8-.6,1.7-1,2.8-1.3,1-.3,2.2-.5,3.5-.5,5.5,0,9,2.1,10.6,6.3.9-1.7,2.2-3.1,3.9-4.4s3.8-1.9,6.3-1.9c4,0,7,1.1,8.8,3.3,1.9,2.2,2.8,5.6,2.8,10.3v22.4c-1.6.3-3.2.4-4.8.4s-3.2-.1-4.8-.4v-19.9c0-2.5-.3-4.3-.9-5.7-.6-1.3-1.8-2-3.7-2s-1.5.1-2.3.3-1.4.6-2,1.3c-.6.6-1.1,1.5-1.5,2.6s-.6,2.6-.6,4.3v19c-1.6.3-3.2.4-4.8.4s-3.2-.1-4.8-.4v-19.9c0-2.5-.3-4.3-.9-5.7-.6-1.3-1.9-2-3.7-2s-1.5.1-2.3.3c-.8.2-1.5.7-2.1,1.3-.6.7-1.1,1.6-1.5,2.8s-.5,2.7-.5,4.6v18.5c-1.6.3-3.2.4-4.8.4s-3.2-.1-4.8-.4v-35.3h0Z"/>
        <path class="st0" d="M553.7,175.4c0-1.1-.2-2-.5-2.7-.4-.7-.9-1.2-1.5-1.6-.6-.4-1.4-.6-2.3-.8-.9-.1-2-.2-3.1-.2-2.5,0-5.1.5-7.8,1.4-.6-1.2-1.1-2.3-1.4-3.3-.3-1.1-.5-2.3-.5-3.8,2-.7,4-1.2,6-1.5s3.9-.5,5.6-.5c4.7,0,8.4,1.1,11.1,3.4,2.7,2.3,4,5.9,4,10.9v20.5c-1.6.5-3.5,1-5.8,1.4-2.3.4-4.8.7-7.7.7s-4.4-.2-6.4-.6-3.6-1.1-5-2.1c-1.4-.9-2.5-2.2-3.2-3.7s-1.1-3.3-1.1-5.5.5-4,1.4-5.5c.9-1.5,2.1-2.7,3.6-3.6s3.1-1.5,4.9-1.9,3.6-.6,5.5-.6,2.8,0,4.4.2v-.8h0ZM553.7,182.5c-.5,0-1.1-.2-1.8-.2-.6,0-1.2-.1-1.7-.1-2.2,0-4,.4-5.3,1.2-1.3.8-1.9,2.1-1.9,3.9s.2,2.1.8,2.7,1.1,1.1,1.8,1.4c.7.3,1.5.5,2.2.6s1.5.1,2.1.1,1.4,0,2-.2c.7-.1,1.3-.2,1.8-.3v-9h0Z"/>
        <path class="st0" d="M580.4,199c-2.2-.4-4.1-1.2-5.7-2.3-1.6-1.1-3-2.4-4.1-4s-1.9-3.4-2.4-5.4c-.5-2-.8-4.1-.8-6.4s.3-5,1.1-7.2c.7-2.2,1.8-4.2,3.2-5.9,1.4-1.7,3.2-3,5.3-4,2.1-1,4.6-1.4,7.4-1.4s1.9,0,2.8,0,1.7.1,2.4.3c.8.1,1.5.3,2.3.6.8.2,1.6.5,2.6.9,0,1.1-.1,2.2-.4,3.5-.3,1.3-.7,2.5-1.3,3.7-1.4-.4-2.6-.8-3.6-.9s-2.2-.2-3.5-.2c-2.8,0-4.9.9-6.4,2.8-1.4,1.8-2.2,4.5-2.2,7.9s.8,6.4,2.3,8.1c1.5,1.7,3.6,2.5,6.3,2.5s1.3,0,1.9,0,1.1,0,1.7-.2c.5,0,1.1-.2,1.7-.4.6-.2,1.2-.4,2-.7.5.9,1,2,1.4,3.2.4,1.2.5,2.6.5,4.3-1.8.7-3.5,1.1-5,1.4-1.5.2-3.2.3-4.9.3l-1.1,2.8c.1,0,.3,0,.4-.1s.4,0,.7,0c2.4,0,4.3.6,5.6,1.7s2,2.5,2,4.3-1,4.1-2.9,5.2-4.5,1.8-7.6,1.8-1.4,0-2.4,0c-1,0-2-.2-3.1-.6,0-.7.2-1.5.3-2.4.1-.9.4-1.7.9-2.4.8.2,1.5.4,2.2.5s1.3.1,2,.1c1.3,0,2.3-.2,3.1-.5.8-.3,1.2-.9,1.2-1.6s-.4-1.3-1.1-1.6c-.7-.3-1.7-.4-2.9-.4s-1.3,0-2.1.1-1.4.2-2.1.5l-.5-.5,2.7-7.2h0Z"/>
        <path class="st0" d="M617.1,175.4c0-1.1-.2-2-.5-2.7-.4-.7-.9-1.2-1.5-1.6-.6-.4-1.4-.6-2.3-.8-.9-.1-2-.2-3.1-.2-2.5,0-5.1.5-7.8,1.4-.6-1.2-1.1-2.3-1.4-3.3-.3-1.1-.5-2.3-.5-3.8,2-.7,4-1.2,6-1.5s3.9-.5,5.6-.5c4.7,0,8.4,1.1,11.1,3.4,2.7,2.3,4,5.9,4,10.9v20.5c-1.6.5-3.5,1-5.8,1.4-2.3.4-4.8.7-7.7.7s-4.5-.2-6.4-.6-3.6-1.1-5-2.1c-1.4-.9-2.5-2.2-3.2-3.7s-1.1-3.3-1.1-5.5.5-4,1.4-5.5c.9-1.5,2.1-2.7,3.6-3.6,1.5-.9,3.1-1.5,5-1.9s3.6-.6,5.5-.6,2.8,0,4.4.2v-.8h0ZM600.1,152.5c.8-1,1.8-1.9,3-2.6,1.2-.7,2.7-1.1,4.4-1.1s1.7.1,2.5.4c.8.2,1.6.5,2.3.8.8.3,1.6.6,2.4.8s1.7.4,2.5.4,1.5-.1,2.2-.3,1.5-.8,2.5-1.8c.7.8,1.3,1.6,1.8,2.6s.9,1.9,1.1,2.9c-.8,1-1.8,1.8-3.1,2.5s-2.8,1-4.4,1-1.7-.1-2.5-.4c-.8-.2-1.6-.5-2.4-.8-.8-.3-1.6-.6-2.4-.8-.8-.2-1.6-.4-2.4-.4s-1.6.1-2.2.4c-.6.2-1.4.8-2.4,1.7-.6-.8-1.2-1.7-1.8-2.6-.5-.9-.9-1.8-1.1-2.8h0ZM617.1,182.5c-.5,0-1.1-.2-1.8-.2-.6,0-1.2-.1-1.7-.1-2.2,0-4,.4-5.3,1.2-1.3.8-1.9,2.1-1.9,3.9s.2,2.1.8,2.7,1.1,1.1,1.8,1.4c.7.3,1.5.5,2.2.6s1.5.1,2.1.1,1.4,0,2-.2c.7-.1,1.3-.2,1.8-.3v-9Z"/>
        <path class="st0" d="M647.7,199.4c-2.9,0-5.3-.5-7.5-1.4s-3.9-2.2-5.2-3.9c-1.4-1.7-2.4-3.6-3.1-5.8s-1.1-4.6-1.1-7.2.3-5,1.1-7.3c.7-2.3,1.8-4.2,3.1-5.9,1.4-1.7,3.1-3,5.2-3.9,2.1-1,4.6-1.4,7.5-1.4s5.4.5,7.5,1.4c2.1.9,3.9,2.3,5.3,3.9,1.4,1.7,2.5,3.6,3.1,5.9.7,2.3,1,4.7,1,7.3s-.3,5-1,7.2-1.7,4.2-3.1,5.8c-1.4,1.7-3.2,3-5.3,3.9s-4.6,1.4-7.5,1.4ZM647.7,192.1c2.5,0,4.4-.9,5.5-2.8,1.1-1.9,1.7-4.6,1.7-8.1s-.6-6.3-1.7-8.1c-1.1-1.9-2.9-2.8-5.5-2.8s-4.3.9-5.4,2.8-1.7,4.6-1.7,8.1.6,6.3,1.7,8.1,2.9,2.8,5.4,2.8Z"/>
      </g>
    </g>
  </g>
</svg>